{
  "accessors": [
    {
      "bufferView": 3,
      "componentType": 5126,
      "count": 9687,
      "max": [0.984375, 3.5649445056915283, 3.8095648288726807],
      "min": [-0.98388671875, -0.10741867125034332, -5.99463415145874],
      "type": "VEC3"
    },
    {
      "bufferView": 3,
      "byteOffset": 116244,
      "componentType": 5126,
      "count": 9687,
      "max": [0.999998152256012, 0.9999120235443115, 0.9994853138923645],
      "min": [-0.9999693632125854, -0.9999908208847046, -0.9999206066131592],
      "type": "VEC3"
    },
    {
      "bufferView": 4,
      "componentType": 5126,
      "count": 9687,
      "max": [1.0, 1.0, 0.9999942779541016, 1.0],
      "min": [-0.9999998807907104, -1.0, -1.0, 1.0],
      "type": "VEC4"
    },
    {
      "bufferView": 2,
      "componentType": 5126,
      "count": 9687,
      "max": [1.320068359375, 0.992919921875],
      "min": [0.018310546875, 0.004638671875],
      "type": "VEC2"
    },
    {
      "bufferView": 2,
      "byteOffset": 77496,
      "componentType": 5126,
      "count": 9687,
      "max": [-15.999267578125, -15.999267578125],
      "min": [-15.999267578125, -15.999267578125],
      "type": "VEC2"
    },
    {
      "bufferView": 1,
      "componentType": 5125,
      "count": 51864,
      "type": "SCALAR"
    },
    {
      "bufferView": 5,
      "componentType": 5126,
      "count": 47,
      "max": [
        1.0, 0.3361721634864807, 0.40276771783828735, 0.0, 0.40276771783828735,
        1.0, 0.40276771783828735, 0.0, 0.3981448709964752, 0.40276771783828735,
        1.0, 0.0, 0.287395715713501, 1.0287754535675049, 0.41836193203926086,
        1.0
      ],
      "min": [
        -0.40276771783828735, -0.3361722528934479, -1.3091661230646423e-6, 0.0,
        -0.16185198724269867, -0.39638182520866394, -0.1911763697862625, 0.0,
        -0.021811263635754585, -0.40276771783828735, -0.37338489294052124, 0.0,
        -0.9075623154640198, -2.2520864009857178, -1.4451109170913696, 1.0
      ],
      "type": "MAT4"
    },
    {
      "bufferView": 0,
      "componentType": 5123,
      "count": 9687,
      "type": "VEC4"
    },
    {
      "bufferView": 4,
      "byteOffset": 154992,
      "componentType": 5126,
      "count": 9687,
      "max": [1.0, 0.4999273121356964, 0.3045571446418762, 0.2246163785457611],
      "min": [0.2744715213775635, 0.0, 0.0, 0.0],
      "type": "VEC4"
    }
  ],
  "asset": {
    "extras": {
      "author": "IagoMendez (https://sketchfab.com/IagoMendez)",
      "license": "CC-BY-4.0 (http://creativecommons.org/licenses/by/4.0/)",
      "source": "https://sketchfab.com/3d-models/parasaurolophus-walkeri-e4a6acc4cb50404c9f13d83c634175e5",
      "title": "Parasaurolophus Walkeri"
    },
    "generator": "Sketchfab-16.10.0",
    "version": "2.0"
  },
  "bufferViews": [
    {
      "buffer": 0,
      "byteLength": 77496,
      "byteStride": 8,
      "name": "shortBufferViews",
      "target": 34962
    },
    {
      "buffer": 0,
      "byteLength": 207456,
      "byteOffset": 77496,
      "name": "floatBufferViews",
      "target": 34963
    },
    {
      "buffer": 0,
      "byteLength": 154992,
      "byteOffset": 284952,
      "byteStride": 8,
      "name": "floatBufferViews",
      "target": 34962
    },
    {
      "buffer": 0,
      "byteLength": 232488,
      "byteOffset": 439944,
      "byteStride": 12,
      "name": "floatBufferViews",
      "target": 34962
    },
    {
      "buffer": 0,
      "byteLength": 309984,
      "byteOffset": 672432,
      "byteStride": 16,
      "name": "floatBufferViews",
      "target": 34962
    },
    {
      "buffer": 0,
      "byteLength": 3008,
      "byteOffset": 982416,
      "name": "floatBufferViews"
    }
  ],
  "buffers": [
    {
      "byteLength": 985424,
      "uri": "scene.bin"
    }
  ],
  "images": [
    {
      "uri": "Parasaurolophus_baseColor.jpeg"
    },
    {
      "uri": "Parasaurolophus_metallicRoughness.png"
    },
    {
      "uri": "Parasaurolophus_normal.jpeg"
    }
  ],
  "materials": [
    {
      "doubleSided": true,
      "name": "Parasaurolophus",
      "normalTexture": {
        "index": 2
      },
      "pbrMetallicRoughness": {
        "baseColorTexture": {
          "index": 0
        },
        "metallicFactor": 0.0,
        "metallicRoughnessTexture": {
          "index": 1
        }
      }
    }
  ],
  "meshes": [
    {
      "name": "Object_0",
      "primitives": [
        {
          "attributes": {
            "JOINTS_0": 7,
            "NORMAL": 1,
            "POSITION": 0,
            "TANGENT": 2,
            "TEXCOORD_0": 3,
            "TEXCOORD_1": 4,
            "TEXCOORD_2": 3,
            "TEXCOORD_3": 3,
            "TEXCOORD_4": 3,
            "WEIGHTS_0": 8
          },
          "indices": 5,
          "material": 0,
          "mode": 4
        }
      ]
    }
  ],
  "nodes": [
    {
      "children": [1],
      "matrix": [
        1.0, 0.0, 0.0, 0.0, 0.0, 2.220446049250313e-16, -1.0, 0.0, 0.0, 1.0,
        2.220446049250313e-16, 0.0, 0.0, 0.0, 0.0, 1.0
      ],
      "name": "Sketchfab_model"
    },
    {
      "children": [2],
      "name": "root"
    },
    {
      "children": [3],
      "matrix": [
        1.0, 0.0, 0.0, 0.0, 0.0, 2.220446049250313e-16, 1.0, 0.0, 0.0, -1.0,
        2.220446049250313e-16, 0.0, 0.0, 0.0, 0.0, 1.0
      ],
      "name": "GLTF_SceneRootNode"
    },
    {
      "children": [4],
      "matrix": [
        2.482820749282837, 0.0, 0.0, 0.0, 0.0, 2.482820749282837, 0.0, 0.0, 0.0,
        0.0, 2.482820749282837, 0.0, 0.0, 2.4389281272888184,
        -0.49813830852508545, 1.0
      ],
      "name": "Esqueleto.002_47"
    },
    {
      "children": [5, 7, 6],
      "name": "GLTF_created_0"
    },
    {
      "children": [8, 15, 36, 39, 45, 48],
      "name": "GLTF_created_0_rootJoint"
    },
    {
      "name": "parasaurolophus_lod0_ob0_46"
    },
    {
      "mesh": 0,
      "name": "Object_7",
      "skin": 0
    },
    {
      "children": [9],
      "name": "Bone_6",
      "rotation": [
        -0.6360687017440796, 2.1215427765597567e-16, 2.1215427765597567e-16,
        0.7716324925422668
      ],
      "translation": [
        2.69255097970993e-17, 0.12126171588897705, -0.027857422828674316
      ]
    },
    {
      "children": [10],
      "name": "Bone.001_5",
      "rotation": [
        -0.09121371060609818, -1.4988799110747958e-18, -3.0105917343714226e-16,
        0.9958313703536987
      ],
      "scale": [1.0, 0.9999999403953552, 0.9999998211860657],
      "translation": [
        1.0257039595657543e-22, 0.3471221327781677, -1.4901161193847656e-8
      ]
    },
    {
      "children": [11],
      "name": "Bone.002_4",
      "rotation": [
        -0.013137289322912693, 7.689222820109179e-20, 1.9400641147259508e-17,
        0.9999136924743652
      ],
      "translation": [
        -1.149894142548081e-23, 0.3184140920639038, -2.0489096641540527e-8
      ]
    },
    {
      "children": [12],
      "name": "Bone.007_3",
      "rotation": [
        -0.011260849423706532, 4.640640917726753e-19, -3.0360966243321886e-17,
        0.9999366998672485
      ],
      "scale": [1.0, 0.9999998807907104, 1.0],
      "translation": [
        1.3958672836832342e-24, 0.40752866864204407, -5.029141902923584e-8
      ]
    },
    {
      "children": [13],
      "name": "Bone.005_2",
      "rotation": [
        -0.014237483032047749, -5.563993684198259e-19, 1.953329113901096e-17,
        0.9998986721038818
      ],
      "scale": [1.0, 1.0000001192092896, 1.0],
      "translation": [
        6.4106497472859645e-24, 0.4101417660713196, 5.21540641784668e-8
      ]
    },
    {
      "children": [14],
      "name": "Bone.006_1",
      "rotation": [
        0.012337736785411835, 5.170272642611451e-26, -2.739538850328913e-18,
        0.9999238848686218
      ],
      "translation": [
        -2.68833699079734e-24, 0.4167129397392273, -1.4901161193847656e-8
      ]
    },
    {
      "name": "Bone.009_0",
      "rotation": [
        -0.04720349609851837, -2.8466063021232513e-25, 1.0481299840249245e-17,
        0.9988853335380554
      ],
      "translation": [
        -6.048758229294015e-24, 0.3067936599254608, 4.470348358154297e-8
      ]
    },
    {
      "children": [16],
      "name": "Bone.010_27",
      "rotation": [
        4.117466687603155e-7, -0.6665439605712891, -0.7454657554626465,
        3.6815558246416913e-7
      ],
      "scale": [1.0, 1.000000238418579, 1.0000104904174805],
      "translation": [
        2.6561656206694375e-17, 0.11962318420410156, -0.026218771934509277
      ]
    },
    {
      "children": [17, 22, 29],
      "name": "Bone.011_26",
      "rotation": [
        0.0935555025935173, -1.1868742433307489e-7, 9.219625241030371e-8,
        0.9956141114234924
      ],
      "scale": [1.0, 1.0, 0.9999998211860657],
      "translation": [
        2.0265932419087467e-14, 0.3123105764389038, -6.51925802230835e-8
      ]
    },
    {
      "children": [18],
      "name": "Bone.012_11",
      "rotation": [
        -0.3197062015533447, -1.1295368551600404e-7, -2.3883674771241203e-7,
        0.9475167393684387
      ],
      "scale": [1.0, 0.9999998807907104, 0.9999999403953552],
      "translation": [
        -1.3700054545678908e-13, 0.30835530161857605, -4.0978193283081055e-8
      ]
    },
    {
      "children": [19],
      "name": "Bone.013_10",
      "rotation": [
        0.21822980046272278, 1.2796980399798485e-6, 4.231791024267295e-7,
        0.9758974313735962
      ],
      "scale": [1.0, 0.9999999403953552, 1.0],
      "translation": [
        3.7082424804435465e-14, 0.3804048001766205, -5.960464477539063e-8
      ]
    },
    {
      "children": [20, 21],
      "name": "Bone.014_9",
      "rotation": [
        0.5508737564086914, -1.0943996358037111e-6, 1.0682225592972827e-6,
        0.8345886468887329
      ],
      "scale": [1.0, 0.9999999403953552, 1.0],
      "translation": [
        -2.552476459360964e-13, 0.28544971346855164, 5.960464477539063e-8
      ]
    },
    {
      "name": "Bone.015_7",
      "rotation": [
        -0.6263297200202942, 6.505108558485517e-7, -9.158815714727098e-7,
        0.7795582413673401
      ],
      "scale": [1.0, 1.0, 1.0000001192092896],
      "translation": [
        -2.269175515892674e-14, 0.33713191747665405, -8.940696716308594e-8
      ]
    },
    {
      "name": "Bone.016_8",
      "rotation": [
        -0.6373938322067261, 1.8371244436821144e-7, -5.521479238268512e-7,
        0.7705382704734802
      ],
      "scale": [1.0, 0.9999999403953552, 0.9999999403953552],
      "translation": [
        1.1410780587084446e-7, 0.2789955735206604, -0.1817469298839569
      ]
    },
    {
      "children": [23],
      "name": "Bone.023_18",
      "rotation": [
        -0.3598383367061615, -0.38641461730003357, 0.4082193672657013,
        0.7446858882904053
      ],
      "scale": [0.9999997615814209, 1.0, 1.0],
      "translation": [
        -1.3700054545678908e-13, 0.30835530161857605, -4.0978193283081055e-8
      ]
    },
    {
      "children": [24],
      "name": "Bone.024_17",
      "rotation": [
        -0.23339825868606567, -0.06402457505464554, 0.3994445204734802,
        0.8842342495918274
      ],
      "scale": [1.0, 0.9999999403953552, 1.0],
      "translation": [
        -7.450580596923828e-8, 0.4882432222366333, -1.043081283569336e-7
      ]
    },
    {
      "children": [25],
      "name": "Bone.025_16",
      "rotation": [
        -0.061169788241386414, -0.03009103797376156, -0.28015613555908203,
        0.9575308561325073
      ],
      "scale": [0.9999999403953552, 1.0, 1.0000001192092896],
      "translation": [
        7.543712854385376e-8, 0.3348056375980377, -2.2118911147117615e-9
      ]
    },
    {
      "children": [26, 27, 28],
      "name": "Bone.026_15",
      "rotation": [
        0.04753918573260307, 2.4333121473318897e-7, -0.20360970497131348,
        0.9778972864151001
      ],
      "scale": [0.9999999403953552, 1.0000001192092896, 1.0000001192092896],
      "translation": [
        2.1187588572502136e-8, 0.28363198041915894, 2.2992026060819626e-8
      ]
    },
    {
      "name": "Bone.029_12",
      "rotation": [
        0.12404923141002655, -0.035041648894548416, -0.2559247314929962,
        0.9580639004707336
      ],
      "scale": [0.9999998211860657, 0.9999999403953552, 0.9999998807907104],
      "translation": [
        -2.7939677238464355e-8, 0.09394644945859909, 1.5133991837501526e-9
      ]
    },
    {
      "name": "Bone.030_13",
      "rotation": [
        0.4228089451789856, 0.1508394479751587, -0.0759323313832283,
        0.8903450965881348
      ],
      "scale": [0.9999998807907104, 0.9999999403953552, 0.9999998211860657],
      "translation": [
        -2.7939677238464355e-8, 0.09394644945859909, 1.5133991837501526e-9
      ]
    },
    {
      "name": "Bone.041_14",
      "rotation": [
        -0.23819705843925476, 0.03385377675294876, -0.23101916909217834,
        0.9427334070205688
      ],
      "scale": [0.9999998807907104, 1.0, 1.0],
      "translation": [
        -2.7939677238464355e-8, 0.09394644945859909, 1.5133991837501526e-9
      ]
    },
    {
      "children": [30],
      "name": "Bone.027_25",
      "rotation": [
        -0.5162144899368286, -0.5350808501243591, 0.17218972742557526,
        0.6461902856826782
      ],
      "scale": [0.9999998211860657, 0.9999999403953552, 0.9999998807907104],
      "translation": [
        -0.005209773778915405, 0.30835530161857605, -1.6470039554405957e-7
      ]
    },
    {
      "children": [31],
      "name": "Bone.028_24",
      "rotation": [
        0.020095929503440857, -0.23185750842094421, 0.45921534299850464,
        0.8572978377342224
      ],
      "scale": [0.9999999403953552, 1.0, 1.0],
      "translation": [-4.0978193283081055e-8, 0.4882431626319885, 0.0]
    },
    {
      "children": [32],
      "name": "Bone.031_23",
      "rotation": [
        0.0786491259932518, -0.03981202840805054, -0.27616003155708313,
        0.9570606350898743
      ],
      "scale": [0.9999999403953552, 0.9999998807907104, 0.9999999403953552],
      "translation": [
        4.842877388000488e-8, 0.3350675702095032, 2.60770320892334e-8
      ]
    },
    {
      "children": [33, 34, 35],
      "name": "Bone.032_22",
      "rotation": [
        -0.04398142546415329, -2.1087033985622838e-7, -0.20262086391448975,
        0.978269100189209
      ],
      "scale": [1.0, 1.0000001192092896, 1.0],
      "translation": [
        -3.899913281202316e-8, 0.2831805944442749, 2.0489096641540527e-8
      ]
    },
    {
      "name": "Bone.033_19",
      "rotation": [
        -0.12284834682941437, 0.03325008600950241, -0.25324615836143494,
        0.9589938521385193
      ],
      "scale": [1.0, 1.0, 0.9999998807907104],
      "translation": [
        -4.866160452365875e-8, 0.09394648671150208, 9.022187441587448e-10
      ]
    },
    {
      "name": "Bone.034_20",
      "rotation": [
        -0.40499457716941833, 0.05649533122777939, -0.1566450297832489,
        0.8990272879600525
      ],
      "scale": [1.0, 0.9999998807907104, 0.9999998211860657],
      "translation": [
        -4.866160452365875e-8, 0.09394648671150208, 9.022187441587448e-10
      ]
    },
    {
      "name": "Bone.042_21",
      "rotation": [
        0.24700520932674408, -0.031385377049446106, -0.2532897889614105,
        0.9347982406616211
      ],
      "scale": [1.0, 1.0000001192092896, 0.9999998807907104],
      "translation": [
        -4.866160452365875e-8, 0.09394648671150208, 9.022187441587448e-10
      ]
    },
    {
      "children": [37],
      "name": "Bone.017_30",
      "rotation": [
        -0.587199866771698, -0.14978712797164917, -0.7954609394073486,
        0.001419632462784648
      ],
      "scale": [0.9999998807907104, 0.9999998211860657, 0.9999998807907104],
      "translation": [
        0.19360512495040894, 0.07980144023895264, 1.4901161193847656e-8
      ]
    },
    {
      "children": [38],
      "name": "Bone.018_29",
      "rotation": [
        0.10701330006122589, -0.6831122040748596, 0.4785146713256836,
        0.541229784488678
      ],
      "scale": [1.0, 1.000000238418579, 1.0],
      "translation": [0.0, 0.4620232880115509, 4.284083843231201e-8]
    },
    {
      "name": "Bone.019_28",
      "rotation": [
        -0.45904192328453064, 0.13323363661766052, -0.22796416282653809,
        0.8482698202133179
      ],
      "scale": [1.0000001192092896, 1.0, 1.0000001192092896],
      "translation": [
        -3.725290298461914e-9, 0.42239922285079956, -5.960464477539063e-8
      ]
    },
    {
      "children": [40, 41, 42, 44],
      "name": "Foot Control.L_36",
      "rotation": [
        0.4999999403953552, 0.5000001192092896, 0.5, 0.4999999403953552
      ],
      "translation": [
        0.21120430529117584, -1.0306726694107056, -0.030883312225341797
      ]
    },
    {
      "name": "Bone.020_31",
      "rotation": [
        0.44501951336860657, 0.1784554272890091, 0.22011615335941315,
        0.8495058417320251
      ],
      "scale": [1.0000001192092896, 1.0, 1.0],
      "translation": [
        0.0908120721578598, -0.04144752770662308, -0.00015367391461040825
      ]
    },
    {
      "name": "Bone.021_32",
      "rotation": [
        0.1357213407754898, 0.020684538409113884, 0.08534984290599823,
        0.9868471622467041
      ],
      "scale": [1.0, 0.9999999403953552, 0.9999999403953552],
      "translation": [
        0.09089945256710052, -0.044972337782382965, 0.003953875973820686
      ]
    },
    {
      "children": [43],
      "name": "Foot ik.L_34",
      "rotation": [
        0.7071066498756409, 7.018066838782033e-8, 0.70710688829422,
        6.033878463540532e-8
      ],
      "translation": [
        0.09089945256710052, -0.03901345282793045, 1.6468213459575054e-8
      ]
    },
    {
      "name": "Knee.L_33",
      "rotation": [
        -3.5527132552840273e-15, -3.5072457972248373e-22, 1.0,
        3.144841330317877e-25
      ],
      "translation": [
        -0.04202743247151375, -0.5490818619728088, 0.580437183380127
      ]
    },
    {
      "name": "Bone.022_35",
      "rotation": [
        -0.2191602736711502, 0.01915980875492096, 0.08269206434488297,
        0.9719895720481873
      ],
      "scale": [1.0, 1.0000001192092896, 1.0],
      "translation": [
        0.09089945256710052, -0.05416712909936905, 0.00018669951532501727
      ]
    },
    {
      "children": [46],
      "name": "Bone.035_39",
      "rotation": [
        0.6188521981239319, 0.038015276193618774, 0.7716552019119263,
        0.14186327159404755
      ],
      "scale": [0.9999999403953552, 0.9999999403953552, 0.9999998211860657],
      "translation": [
        -0.20086471736431122, 0.07980132102966309, 1.4901161193847656e-8
      ]
    },
    {
      "children": [47],
      "name": "Bone.036_38",
      "rotation": [
        0.4264508783817291, -0.655869722366333, 0.2459508627653122,
        0.5722610950469971
      ],
      "scale": [0.9999999403953552, 0.9999999403953552, 1.0],
      "translation": [
        2.9802322387695313e-8, 0.46159595251083374, 3.5390257835388184e-8
      ]
    },
    {
      "name": "Bone.037_37",
      "rotation": [
        -0.4915327727794647, 0.06461643427610397, 0.09977493435144424,
        0.8627080917358398
      ],
      "scale": [0.9999999403953552, 1.0, 1.0000001192092896],
      "translation": [
        3.725290298461914e-9, 0.4250136911869049, -1.3969838619232178e-9
      ]
    },
    {
      "children": [49, 50, 51, 53],
      "name": "Foot Control.L.001_45",
      "rotation": [
        0.4999999403953552, 0.5000000596046448, 0.5000000596046448,
        0.4999999403953552
      ],
      "translation": [
        -0.21846388280391693, -1.0306726694107056, -0.030883312225341797
      ]
    },
    {
      "name": "Bone.038_40",
      "rotation": [
        -0.47937190532684326, -0.009560366161167622, 0.12921345233917236,
        0.8679949045181274
      ],
      "scale": [0.9999999403953552, 0.9999999403953552, 1.0],
      "translation": [
        0.09089944511651993, -0.05416710674762726, -0.0001866436650743708
      ]
    },
    {
      "name": "Bone.039_41",
      "rotation": [
        -0.14444775879383087, 0.05600888282060623, 0.07547662407159805,
        0.985038697719574
      ],
      "translation": [
        0.09089944511651993, -0.05706693232059479, 2.3185613429177465e-8
      ]
    },
    {
      "children": [52],
      "name": "Foot ik.L.001_43",
      "rotation": [-0.7071066498756409, 0.0, -0.70710688829422, 0.0],
      "translation": [
        0.09089944511651993, -0.05530659854412079, 2.3185613429177465e-8
      ]
    },
    {
      "name": "Knee.L.001_42",
      "rotation": [0.0, 0.0, -1.0, 0.0],
      "translation": [
        0.04202747344970703, -0.5490819215774536, 0.5804372429847717
      ]
    },
    {
      "name": "Bone.040_44",
      "rotation": [
        0.22488783299922943, -0.019375620409846306, 0.08362331241369247,
        0.9705963134765625
      ],
      "translation": [
        0.09089944511651993, -0.05416710674762726, -0.0001866436650743708
      ]
    }
  ],
  "samplers": [
    {
      "magFilter": 9729,
      "minFilter": 9987,
      "wrapS": 10497,
      "wrapT": 10497
    }
  ],
  "scene": 0,
  "scenes": [
    {
      "name": "Sketchfab_Scene",
      "nodes": [0]
    }
  ],
  "skins": [
    {
      "inverseBindMatrices": 6,
      "joints": [
        5, 8, 9, 10, 11, 12, 13, 14, 15, 16, 17, 18, 19, 20, 21, 22, 23, 24, 25,
        26, 27, 28, 29, 30, 31, 32, 33, 34, 35, 36, 37, 38, 39, 40, 41, 42, 43,
        44, 45, 46, 47, 48, 49, 50, 51, 52, 53
      ],
      "skeleton": 5
    }
  ],
  "textures": [
    {
      "sampler": 0,
      "source": 0
    },
    {
      "sampler": 0,
      "source": 1
    },
    {
      "sampler": 0,
      "source": 2
    }
  ]
}
